<svg width="24" height="24" viewBox="0 0 24 24" fill="none" xmlns="http://www.w3.org/2000/svg">
<path d="M16.4006 4.13198L14.5732 5.95939L18.0406 9.42679L19.868 7.59938L16.4006 4.13198ZM16.6349 10.8325L13.1675 7.36509L5.48301 15.0027L8.8567 18.6107L16.6349 10.8325ZM7.16986 19.7353L4.3116 16.6427L4.03046 19.9695L7.16986 19.7353ZM21.4143 8.86451L9.18469 21.141C9.12222 21.2034 9.04412 21.2659 8.95041 21.3284C8.8567 21.3909 8.76298 21.4533 8.66927 21.5158C8.54432 21.5471 8.43499 21.5783 8.34127 21.6095C8.24756 21.6408 8.13823 21.6564 8.01328 21.6564L3.79617 21.9844C3.54627 22.0156 3.31199 22 3.09332 21.9375C2.87466 21.8438 2.67161 21.7032 2.48419 21.5158C2.29676 21.3284 2.15619 21.1253 2.06248 20.9067C2 20.688 1.98438 20.4537 2.01562 20.2038L2.34362 15.9867C2.34362 15.8618 2.35923 15.7524 2.39047 15.6587C2.42171 15.565 2.45295 15.4557 2.48419 15.3307C2.54666 15.237 2.60914 15.1433 2.67161 15.0496C2.73409 14.9559 2.79656 14.8778 2.85904 14.8153L15.1355 2.58571C15.198 2.492 15.2761 2.4139 15.3698 2.35143C15.4635 2.28895 15.5572 2.24209 15.6509 2.21086C15.7446 2.14838 15.8383 2.10152 15.9321 2.07029C16.057 2.03905 16.182 2.02343 16.3069 2.02343C16.4319 1.99219 16.5412 1.99219 16.6349 2.02343C16.7599 2.02343 16.8848 2.05467 17.0098 2.11714C17.1347 2.14838 17.244 2.19524 17.3378 2.25771C17.4315 2.32019 17.5252 2.39828 17.6189 2.492L21.508 6.3811C21.6017 6.47481 21.6798 6.56853 21.7423 6.66224C21.8048 6.75595 21.8516 6.86529 21.8829 6.99024C21.9453 7.11519 21.9766 7.24014 21.9766 7.36509C22.0078 7.45881 22.0078 7.56814 21.9766 7.69309C21.9766 7.81804 21.961 7.94299 21.9297 8.06794C21.8985 8.16166 21.8516 8.25537 21.7891 8.34908C21.7579 8.4428 21.7111 8.53651 21.6486 8.63022C21.5861 8.72394 21.508 8.80203 21.4143 8.86451Z" fill="#0d6cf2"/>
</svg>
