<svg width="24" height="24" viewBox="0 0 24 24" fill="none" xmlns="http://www.w3.org/2000/svg">
<path d="M10.6855 9.27698C10.4976 9.08923 10.2629 8.99536 9.9812 8.99536C9.69946 8.99536 9.46484 9.08923 9.2771 9.27698C9.16724 9.38684 9.08936 9.51282 9.0437 9.65479C9.01147 9.75562 8.99536 9.86438 8.99536 9.9812V17.0234C8.99536 17.3052 9.08911 17.5399 9.2771 17.7277C9.39502 17.8457 9.53149 17.9266 9.68652 17.9705C9.77832 17.9965 9.87646 18.0094 9.9812 18.0094C10.2629 18.0094 10.4976 17.9155 10.6855 17.7277C10.9045 17.5399 11.0142 17.3052 11.0142 17.0234V9.9812C11.0142 9.69958 10.9045 9.46484 10.6855 9.27698Z" fill="#EE2d3d"/>
<path d="M14.7229 9.27698C14.5352 9.08923 14.3005 8.99536 14.0188 8.99536C13.8765 8.99536 13.7419 9.01941 13.6155 9.06738C13.4919 9.11426 13.376 9.1842 13.2676 9.27698C13.0798 9.46484 12.9858 9.69958 12.9858 9.9812V17.0234C12.9858 17.3052 13.0798 17.5399 13.2676 17.7277C13.4868 17.9155 13.7371 18.0094 14.0188 18.0094C14.3005 18.0094 14.5352 17.9155 14.7229 17.7277C14.9109 17.5399 15.0046 17.3052 15.0046 17.0234V9.9812C15.0046 9.69958 14.9109 9.46484 14.7229 9.27698Z" fill="#EE2d3d"/>
<path fill-rule="evenodd" clip-rule="evenodd" d="M2.28174 5.28638C2.09399 5.47412 2 5.70886 2 5.9906C2 6.27234 2.09399 6.50708 2.28174 6.69482C2.46948 6.88257 2.70435 6.97656 2.98584 6.97656H5.00464V20.3098C5.00464 20.5289 5.03589 20.748 5.09863 20.9672C5.19238 21.1549 5.31763 21.327 5.47412 21.4835C5.56006 21.5868 5.65088 21.6759 5.74658 21.7509C5.82471 21.8121 5.90601 21.8639 5.99072 21.9061C6.20972 21.9688 6.42871 22 6.64795 22H17.3521C17.5713 22 17.7747 21.9688 17.9624 21.9061C18.1816 21.8123 18.3694 21.6714 18.5259 21.4835C18.6824 21.327 18.7917 21.1549 18.8545 20.9672C18.9482 20.748 18.9954 20.5289 18.9954 20.3098V6.97656H21.0142C21.2957 6.97656 21.5305 6.88257 21.7183 6.69482C21.906 6.50708 22 6.27234 22 5.9906C22 5.70886 21.906 5.47412 21.7183 5.28638C21.5305 5.09863 21.2957 5.00464 21.0142 5.00464H17.0234C17.0234 4.82837 17.0098 4.6554 16.9822 4.48596C16.9509 4.29456 16.9021 4.10754 16.8357 3.92493C16.7104 3.54932 16.5383 3.2207 16.3193 2.93896C16.1001 2.65723 15.8184 2.43823 15.4741 2.28174C15.1611 2.09387 14.8013 2 14.3943 2H9.60571C9.19873 2 8.82324 2.09387 8.47876 2.28174C8.32275 2.35974 8.17871 2.45325 8.04614 2.56226C7.9126 2.672 7.79077 2.79761 7.68066 2.93896C7.46167 3.2207 7.28955 3.54932 7.16431 3.92493C7.03906 4.26917 6.97656 4.62915 6.97656 5.00464H2.98584C2.70435 5.00464 2.46948 5.09863 2.28174 5.28638ZM8.99536 5.00464C8.99536 4.81689 9.01099 4.6604 9.04224 4.53516C9.08057 4.45825 9.11914 4.38721 9.15747 4.32214C9.18164 4.28137 9.20581 4.2428 9.22998 4.20654C9.32397 4.11267 9.4021 4.05005 9.46484 4.0188C9.52734 3.98743 9.57422 3.9718 9.60571 3.9718H14.3943C14.4258 3.9718 14.4727 3.98743 14.5352 4.0188C14.5979 4.05005 14.676 4.11267 14.77 4.20654C14.8325 4.30042 14.8794 4.41003 14.9109 4.53516C14.9734 4.6604 15.0046 4.81689 15.0046 5.00464H8.99536ZM6.97656 6.97656V10H7V14H6.97656V20.0282H17.0234V6.97656H6.97656Z" fill="#EE2d3d"/>
</svg>
