<svg width="24" height="24" viewBox="0 0 24 24" fill="none" xmlns="http://www.w3.org/2000/svg">
<path d="M10.5 6.1C10.5 6.1 11.4129 6 12 6C19 6 21 12 21 12C21 12 20.5 13.5 19.13 15M16.5 16.9946C15.7595 17.3585 14.1492 18 12 18C5 18 3 12 3 12C3 12 3.91759 9.21052 6.80754 7.39356M14.12 14.12C14.12 14.12 13.35 15 12 15C11.2812 15 10.5138 14.7539 9.87995 14.12C9.24609 13.4861 9 12.8567 9 12C9 10.65 9.88086 9.88086 9.88086 9.88086M14.12 14.12L9.88086 9.88086M14.12 14.12L19 19M9.88086 9.88086L5 5M14.85 11.3C14.6855 10.755 14.5125 10.2726 14.12 9.87999C13.7274 9.4874 13.445 9.31443 12.9 9.14999" stroke="#6C757D" stroke-width="2" stroke-linecap="round" stroke-linejoin="round"/>
</svg>
