<svg width="24" height="24" viewBox="0 0 24 24" fill="none" xmlns="http://www.w3.org/2000/svg">
<path d="M14.4545 20.2053V15.437C14.4545 15.2262 14.3683 15.0241 14.2149 14.8751C14.0615 14.726 13.8534 14.6423 13.6364 14.6423H10.3636C10.1466 14.6423 9.93853 14.726 9.78509 14.8751C9.63166 15.0241 9.54545 15.2262 9.54545 15.437V20.2053C9.54545 20.4161 9.45925 20.6182 9.30581 20.7672C9.15238 20.9163 8.94427 21 8.72727 21H3.81818C3.60119 21 3.39308 20.9163 3.23964 20.7672C3.0862 20.6182 3 20.4161 3 20.2053V11.0164C3.00183 10.9064 3.0263 10.7979 3.07197 10.6973C3.11764 10.5966 3.18358 10.5058 3.26591 10.4303L11.4477 3.20836C11.5986 3.07433 11.7956 3 12 3C12.2044 3 12.4014 3.07433 12.5523 3.20836L20.7341 10.4303C20.8164 10.5058 20.8824 10.5966 20.928 10.6973C20.9737 10.7979 20.9982 10.9064 21 11.0164V20.2053C21 20.4161 20.9138 20.6182 20.7604 20.7672C20.6069 20.9163 20.3988 21 20.1818 21H15.2727C15.0557 21 14.8476 20.9163 14.6942 20.7672C14.5407 20.6182 14.4545 20.4161 14.4545 20.2053Z" stroke="#6C757D" stroke-width="2" stroke-linecap="round" stroke-linejoin="round"/>
</svg>
