<svg width="18" height="18" viewBox="0 0 18 18" fill="none" xmlns="http://www.w3.org/2000/svg">
<path d="M0.914062 0.914062C1.07031 0.757812 1.26562 0.679688 1.5 0.679688C1.73438 0.679688 1.92969 0.757812 2.08594 0.914062L9 7.82812L15.9141 0.914062C16.0703 0.757812 16.2656 0.679688 16.5 0.679688C16.7344 0.679688 16.9297 0.757812 17.0859 0.914062C17.2422 1.07031 17.3203 1.26562 17.3203 1.5C17.3203 1.73438 17.2422 1.92969 17.0859 2.08594L10.1719 9L17.0859 15.9141C17.2422 16.0703 17.3203 16.2656 17.3203 16.5C17.3203 16.7344 17.2422 16.9297 17.0859 17.0859C16.9297 17.2422 16.7344 17.3203 16.5 17.3203C16.2656 17.3203 16.0703 17.2422 15.9141 17.0859L9 10.1719L2.08594 17.0859C1.92969 17.2422 1.73438 17.3203 1.5 17.3203C1.26562 17.3203 1.07031 17.2422 0.914062 17.0859C0.757812 16.9297 0.679688 16.7344 0.679688 16.5C0.679688 16.2656 0.757812 16.0703 0.914062 15.9141L7.82812 9L0.914062 2.08594C0.757812 1.92969 0.679688 1.73438 0.679688 1.5C0.679688 1.26562 0.757812 1.07031 0.914062 0.914062Z" fill="#4A5056"/>
</svg>
